<svg width="545" height="336" viewBox="0 0 545 336" fill="none" xmlns="http://www.w3.org/2000/svg">
<g clip-path="url(#clip0_1_3)">
<rect width="545" height="336" fill="#3C2F48"/>
<rect width="545" height="336" fill="url(#paint0_linear_1_3)"/>
<path d="M69.4063 79.6413L110 35.8319L69.4063 102.614L69.4063 79.6413Z" fill="#FFFD9D"/>
<path d="M69.426 79.6413L29.0905 35.832L69.426 102.614L69.426 79.6413Z" fill="#B6761C"/>
<path d="M110 35.8319L29.0906 35.8319L69.4065 79.6413L110 35.8319Z" fill="#FFE144"/>
<path d="M86.2408 44.1797L52.8496 44.1797L69.4879 62.1596L86.2408 44.1797Z" fill="#B6761C"/>
<path d="M69.488 42.4255L86.2037 24.3857L69.488 51.8853L69.488 42.4255Z" fill="#FFFD9D"/>
<path d="M69.4962 42.4255L52.8868 24.3857L69.4962 51.8853L69.4962 42.4255Z" fill="#B6761C"/>
<path d="M86.2037 24.3858L52.8869 24.3858L69.4881 42.4256L86.2037 24.3858Z" fill="#FFE144"/>
<path d="M164.119 81L137.304 50.9314L137.353 80.1702H135V44.781H135.147L161.962 75.0937L161.913 45.5132H164.217V81H164.119Z" fill="white"/>
<path d="M185.113 45.5132H206.585V47.8074H187.515V61.5726H204.673V63.8668H187.515V77.876H207.271V80.1702H185.113V45.5132Z" fill="white"/>
<path d="M222.795 80.1702L234.266 62.3536L223.285 45.5132H226.276L236.08 60.4987L245.443 45.5132H248.286L237.354 62.5L248.924 80.1702H245.884L235.59 64.3549L225.736 80.1702H222.795Z" fill="white"/>
<path d="M263.391 80.1702L278.097 44H278.293L293 80.1702H290.304L285.745 68.6992H270.401L265.793 80.1702H263.391ZM271.283 66.4538H284.862L278.146 49.4182L271.283 66.4538Z" fill="white"/>
<path d="M479.503 83.5192L545.35 60.6716L530.024 120.416L479.503 83.5192Z" fill="#C4C4C4" fill-opacity="0.1" stroke="white"/>
<path d="M545.35 60.6716L530.024 120.416L549.891 170.652L545.35 60.6716Z" fill="#C4C4C4" fill-opacity="0.1" stroke="white"/>
<path d="M555 230.965L541.377 199.318L549.891 170.652L555 230.965Z" fill="#C4C4C4" fill-opacity="0.1" stroke="white"/>
<path d="M531.869 233.093L555 230.965L545.5 270.5L531.869 233.093Z" fill="#C4C4C4" fill-opacity="0.1" stroke="white"/>
<path d="M527.869 240.093L551 237.965L541.5 277.5L527.869 240.093Z" fill="url(#paint1_linear_1_3)"/>
<path d="M531.869 233.093L541.377 199.318L555 230.965L531.869 233.093Z" fill="#C4C4C4" fill-opacity="0.1" stroke="white"/>
<path d="M541.377 199.318L512.427 218.476L531.869 233.093L541.377 199.318Z" fill="#C4C4C4" fill-opacity="0.1" stroke="white"/>
<path d="M541.377 199.318L441.755 226.707L512.427 218.476L541.377 199.318Z" fill="#C4C4C4" fill-opacity="0.1" stroke="white"/>
<path d="M549.891 170.652L459.068 154.758L541.377 199.318L549.891 170.652Z" fill="#C4C4C4" fill-opacity="0.1" stroke="white"/>
<path d="M530.024 120.416L459.068 154.758L549.891 170.652L530.024 120.416Z" fill="#C4C4C4" fill-opacity="0.1" stroke="white"/>
<path d="M475.814 114.03L459.068 154.758L530.024 120.416L475.814 114.03Z" fill="#C4C4C4" fill-opacity="0.1" stroke="white"/>
<path d="M475.814 114.03L419.617 133.756L459.068 154.758L475.814 114.03Z" fill="#C4C4C4" fill-opacity="0.1" stroke="white"/>
<path d="M475.814 114.03L419.617 133.756L479.503 83.5192L475.814 114.03Z" fill="#C4C4C4" fill-opacity="0.1" stroke="white"/>
<path d="M459.068 154.758L415.644 170.652L541.377 199.318L459.068 154.758Z" fill="#C4C4C4" fill-opacity="0.1" stroke="white"/>
<path d="M419.617 133.756L415.644 170.652L459.068 154.758L419.617 133.756Z" fill="#C4C4C4" fill-opacity="0.1" stroke="white"/>
<path d="M415.644 170.652L441.755 226.707L541.377 199.318L415.644 170.652Z" fill="#C4C4C4" fill-opacity="0.1" stroke="white"/>
<path d="M401.027 218.476L415.644 170.652L441.755 226.707L401.027 218.476Z" fill="#C4C4C4" fill-opacity="0.1" stroke="white"/>
<path d="M419.617 133.756L298.709 191.939L415.644 170.652L419.617 133.756Z" fill="#C4C4C4" fill-opacity="0.1" stroke="white"/>
<path d="M365.691 133.756H419.617L298.709 191.939L365.691 133.756Z" fill="white" fill-opacity="0.1" stroke="white"/>
<path d="M360.691 128.756H414.617L293.709 186.939L360.691 128.756Z" fill="url(#paint2_linear_1_3)"/>
<path d="M401.027 218.476L298.709 191.939L415.644 170.652L401.027 218.476Z" fill="#C4C4C4" fill-opacity="0.1" stroke="white"/>
<path d="M298.709 191.939L325.388 240.047L401.027 218.476L298.709 191.939Z" fill="#C4C4C4" fill-opacity="0.1" stroke="white"/>
<path d="M298.709 191.939L265.502 240.047H325.388L298.709 191.939Z" fill="#C4C4C4" fill-opacity="0.1" stroke="white"/>
<path d="M207.035 233.377L265.502 240.047L298.709 191.939L207.035 233.377Z" fill="#C4C4C4" fill-opacity="0.1" stroke="white"/>
<path d="M208.738 266.584L207.035 233.377L265.502 240.047L208.738 266.584Z" fill="#C4C4C4" fill-opacity="0.1" stroke="white"/>
<path d="M212.738 273.584L211.035 240.377L269.502 247.047L212.738 273.584Z" fill="url(#paint3_linear_1_3)"/>
<path d="M131.112 233.377H207.035L208.738 266.584L131.112 233.377Z" fill="#C4C4C4" fill-opacity="0.1" stroke="white"/>
<path d="M131.112 285.742V233.377L208.738 266.584L131.112 285.742Z" fill="#C4C4C4" fill-opacity="0.1" stroke="white"/>
<path d="M131.112 285.742L70.2326 261.901L131.112 233.377V285.742Z" fill="#C4C4C4" fill-opacity="0.1" stroke="white"/>
<path d="M127.112 277.742L66.2326 253.901L127.112 225.377V277.742Z" fill="url(#paint4_linear_1_3)"/>
<path d="M62.9951 291.561L70.2326 261.901L131.112 285.742L62.9951 291.561Z" fill="#C4C4C4" fill-opacity="0.1" stroke="white"/>
<path d="M24.8212 279.924L70.2326 261.901L62.9952 291.561L24.8212 279.924Z" fill="#C4C4C4" fill-opacity="0.1" stroke="white"/>
<path d="M62.9952 291.561L23.2601 320.51L24.8211 279.924L62.9952 291.561Z" fill="#C4C4C4" fill-opacity="0.1" stroke="white"/>
<path d="M67.9952 297.561L28.2601 326.51L29.8211 285.924L67.9952 297.561Z" fill="url(#paint5_linear_1_3)"/>
<path d="M23.2601 320.51L24.8211 279.924L-2 273.538L23.2601 320.51Z" fill="#C4C4C4" fill-opacity="0.1" stroke="white"/>
<path d="M30.3557 250.406L24.8212 279.924L70.2326 261.901L30.3557 250.406Z" fill="#C4C4C4" fill-opacity="0.1" stroke="white"/>
<path d="M24.8211 279.924L-2 273.538L30.3557 250.406L24.8211 279.924Z" fill="#C4C4C4" fill-opacity="0.1" stroke="white"/>
<path d="M-2 346.764L23.2601 320.51L-2 273.538V346.764Z" fill="#C4C4C4" fill-opacity="0.1" stroke="white"/>
<path d="M545.35 -10L479.503 83.5192L545.35 60.6716V-10Z" fill="#C4C4C4" fill-opacity="0.1" stroke="white"/>
<path d="M545.35 -19L479.503 74.5192L545.35 51.6716V-19Z" fill="url(#paint6_linear_1_3)"/>
<path d="M479.503 83.5192L475.814 114.03L530.024 120.416L479.503 83.5192Z" fill="#C4C4C4" fill-opacity="0.1" stroke="white"/>
<path d="M30.3557 250.406L-2 273.538V179.451L30.3557 250.406Z" fill="#C4C4C4" fill-opacity="0.1" stroke="white"/>
<path d="M37.3557 242.406L5 265.538V171.451L37.3557 242.406Z" fill="url(#paint7_linear_1_3)"/>
<path d="M401.027 224.476L298.709 197.939L415.644 176.652L401.027 224.476Z" fill="url(#paint8_linear_1_3)"/>
<path d="M549.891 176.652L459.068 160.758L541.377 205.318L549.891 176.652Z" fill="url(#paint9_linear_1_3)"/>
<path d="M550.35 59.6716L535.024 119.416L554.891 169.652L550.35 59.6716Z" fill="url(#paint10_linear_1_3)"/>
<path d="M497.464 310.437C495.87 310.437 494.371 309.816 493.243 308.689C490.915 306.361 490.915 302.574 493.243 300.246C494.371 299.119 495.87 298.498 497.464 298.498C499.059 298.498 500.558 299.119 501.686 300.246L506.083 304.643L508.721 307.282C509.473 308.033 510.472 308.447 511.536 308.447C512.599 308.447 513.598 308.033 514.35 307.282C515.1 306.531 515.514 305.532 515.514 304.467C515.514 303.403 515.1 302.404 514.35 301.653C513.598 300.902 512.599 300.488 511.536 300.488C510.472 300.488 509.473 300.902 508.721 301.653L509.073 302.005C509.731 301.347 510.605 300.985 511.536 300.985C512.466 300.985 513.34 301.347 513.998 302.005C514.655 302.662 515.016 303.536 515.016 304.467C515.016 305.399 514.655 306.273 513.998 306.93C513.34 307.588 512.466 307.95 511.536 307.95C510.605 307.95 509.731 307.588 509.073 306.93L506.435 304.292L502.038 299.894C500.816 298.673 499.192 298 497.464 298C495.737 298 494.113 298.673 492.891 299.894C490.37 302.416 490.37 306.519 492.891 309.041C494.113 310.262 495.737 310.935 497.464 310.935C499.192 310.935 500.816 310.262 502.038 309.041L501.686 308.689C500.558 309.816 499.059 310.437 497.464 310.437Z" fill="white"/>
<path d="M516.109 299.894C514.887 298.673 513.263 298 511.536 298C509.808 298 508.184 298.673 506.963 299.894L507.314 300.246C508.442 299.118 509.941 298.498 511.536 298.498C513.13 298.498 514.629 299.118 515.757 300.246C518.085 302.574 518.085 306.361 515.757 308.689C514.629 309.816 513.13 310.437 511.536 310.437C509.941 310.437 508.442 309.816 507.314 308.689L502.917 304.292L500.279 301.653C499.527 300.902 498.528 300.487 497.464 300.487C496.401 300.487 495.402 300.902 494.65 301.653C493.9 302.404 493.486 303.403 493.486 304.467C493.486 305.532 493.9 306.531 494.65 307.282C495.402 308.033 496.401 308.447 497.464 308.447C498.528 308.447 499.527 308.033 500.279 307.282L499.927 306.93C499.269 307.588 498.395 307.95 497.464 307.95C496.534 307.95 495.66 307.588 495.002 306.93C494.345 306.273 493.984 305.399 493.984 304.467C493.984 303.536 494.345 302.662 495.002 302.005C495.66 301.347 496.534 300.985 497.464 300.985C498.395 300.985 499.269 301.347 499.927 302.005L502.565 304.643L506.963 309.041C508.184 310.262 509.808 310.935 511.536 310.935C513.263 310.935 514.887 310.262 516.109 309.041C518.63 306.519 518.63 302.416 516.109 299.894Z" fill="white"/>
<path d="M514.877 301.125C515.77 302.018 516.262 303.205 516.262 304.467C516.262 305.73 515.77 306.917 514.877 307.809C513.985 308.702 512.798 309.193 511.536 309.193C510.273 309.193 509.086 308.702 508.194 307.809L508.194 307.809L508.009 307.625L507.657 307.976L507.842 308.161L507.842 308.161C508.828 309.148 510.14 309.691 511.536 309.691C512.931 309.691 514.243 309.148 515.229 308.161C516.216 307.174 516.759 305.863 516.759 304.467C516.759 303.072 516.216 301.76 515.229 300.774C513.193 298.737 509.879 298.737 507.842 300.774L508.194 301.125C510.036 299.283 513.035 299.283 514.877 301.125Z" fill="white"/>
<path d="M504.892 305.212L505.244 304.86L504.888 304.504L504.536 304.855L504.892 305.212Z" fill="white"/>
<path d="M505.673 305.992L506.024 305.64L505.668 305.284L505.316 305.636L505.673 305.992Z" fill="white"/>
<path d="M506.453 306.772L506.805 306.42L506.448 306.064L506.097 306.416L506.453 306.772Z" fill="white"/>
<path d="M507.233 307.552L507.585 307.201L507.229 306.844L506.877 307.196L507.233 307.552Z" fill="white"/>
<path d="M504.111 304.43L504.463 304.078L504.105 303.721L503.754 304.073L504.111 304.43Z" fill="white"/>
<path d="M502.542 302.158L502.191 302.51L502.547 302.866L502.664 302.749L502.899 302.514L502.542 302.158Z" fill="white"/>
<path d="M501.766 302.085L502.117 301.733L501.761 301.376L501.409 301.728L501.766 302.085Z" fill="white"/>
<path d="M502.723 302.69L502.664 302.749L502.547 302.866L502.723 302.69Z" fill="white"/>
<path d="M503.329 303.648L503.681 303.296L503.324 302.939L502.972 303.291L503.329 303.648Z" fill="white"/>
<path d="M500.991 301.31L501.343 300.958L501.158 300.774L500.982 300.949L501.158 300.774C500.171 299.787 498.86 299.244 497.464 299.244C496.069 299.244 494.757 299.787 493.771 300.774C492.784 301.76 492.241 303.072 492.241 304.467C492.241 305.863 492.784 307.174 493.771 308.161C494.757 309.148 496.069 309.691 497.464 309.691C498.86 309.691 500.171 309.148 501.158 308.161L500.806 307.809C499.914 308.702 498.727 309.193 497.464 309.193C496.202 309.193 495.015 308.702 494.122 307.809C493.23 306.917 492.738 305.73 492.738 304.467C492.738 303.205 493.23 302.018 494.122 301.125C495.015 300.233 496.202 299.741 497.464 299.741C498.727 299.741 499.914 300.233 500.806 301.125L500.991 301.31Z" fill="white"/>
<rect x="506.964" y="299.893" width="0.499185" height="3.48451" transform="rotate(45 506.964 299.893)" fill="url(#paint11_linear_1_3)"/>
<rect x="507.843" y="300.772" width="0.499185" height="3.48451" transform="rotate(45 507.843 300.772)" fill="url(#paint12_linear_1_3)"/>
<rect x="508.722" y="301.651" width="0.499185" height="3.48451" transform="rotate(45 508.722 301.651)" fill="url(#paint13_linear_1_3)"/>
<rect width="0.499185" height="3.48451" transform="matrix(0.707107 0.707107 0.707107 -0.707107 499.925 306.931)" fill="url(#paint14_linear_1_3)"/>
<rect width="0.499185" height="3.48451" transform="matrix(0.707107 0.707107 0.707107 -0.707107 500.804 307.81)" fill="url(#paint15_linear_1_3)"/>
<rect width="0.499185" height="3.48451" transform="matrix(0.707107 0.707107 0.707107 -0.707107 501.683 308.689)" fill="url(#paint16_linear_1_3)"/>
<path d="M254.057 310V301.273H257.006C257.69 301.273 258.25 301.396 258.685 301.643C259.122 301.888 259.446 302.219 259.656 302.636C259.866 303.054 259.972 303.52 259.972 304.034C259.972 304.548 259.866 305.016 259.656 305.436C259.449 305.857 259.128 306.192 258.693 306.442C258.259 306.689 257.702 306.812 257.023 306.812H254.909V305.875H256.989C257.457 305.875 257.834 305.794 258.118 305.632C258.402 305.47 258.608 305.251 258.736 304.976C258.866 304.697 258.932 304.384 258.932 304.034C258.932 303.685 258.866 303.372 258.736 303.097C258.608 302.821 258.401 302.605 258.114 302.449C257.827 302.29 257.446 302.21 256.972 302.21H255.114V310H254.057ZM270.238 305.636C270.238 306.557 270.071 307.352 269.739 308.023C269.407 308.693 268.951 309.21 268.371 309.574C267.792 309.938 267.13 310.119 266.385 310.119C265.641 310.119 264.979 309.938 264.4 309.574C263.82 309.21 263.364 308.693 263.032 308.023C262.699 307.352 262.533 306.557 262.533 305.636C262.533 304.716 262.699 303.92 263.032 303.25C263.364 302.58 263.82 302.062 264.4 301.699C264.979 301.335 265.641 301.153 266.385 301.153C267.13 301.153 267.792 301.335 268.371 301.699C268.951 302.062 269.407 302.58 269.739 303.25C270.071 303.92 270.238 304.716 270.238 305.636ZM269.215 305.636C269.215 304.881 269.088 304.243 268.836 303.723C268.586 303.203 268.246 302.81 267.817 302.543C267.391 302.276 266.914 302.142 266.385 302.142C265.857 302.142 265.378 302.276 264.949 302.543C264.523 302.81 264.184 303.203 263.931 303.723C263.681 304.243 263.556 304.881 263.556 305.636C263.556 306.392 263.681 307.03 263.931 307.55C264.184 308.07 264.523 308.463 264.949 308.73C265.378 308.997 265.857 309.131 266.385 309.131C266.914 309.131 267.391 308.997 267.817 308.73C268.246 308.463 268.586 308.07 268.836 307.55C269.088 307.03 269.215 306.392 269.215 305.636ZM274.8 310L272.413 301.273H273.487L275.311 308.381H275.396L277.254 301.273H278.448L280.306 308.381H280.391L282.215 301.273H283.288L280.902 310H279.811L277.885 303.045H277.817L275.891 310H274.8ZM285.805 310V301.273H291.072V302.21H286.862V305.159H290.8V306.097H286.862V309.062H291.14V310H285.805ZM294.177 310V301.273H297.126C297.808 301.273 298.367 301.389 298.805 301.622C299.242 301.852 299.566 302.169 299.777 302.572C299.987 302.976 300.092 303.435 300.092 303.949C300.092 304.463 299.987 304.919 299.777 305.317C299.566 305.714 299.244 306.027 298.809 306.254C298.375 306.479 297.819 306.591 297.143 306.591H294.757V305.636H297.109C297.575 305.636 297.95 305.568 298.234 305.432C298.521 305.295 298.728 305.102 298.856 304.852C298.987 304.599 299.052 304.298 299.052 303.949C299.052 303.599 298.987 303.294 298.856 303.033C298.725 302.771 298.517 302.57 298.23 302.428C297.943 302.283 297.563 302.21 297.092 302.21H295.234V310H294.177ZM298.285 306.08L300.433 310H299.206L297.092 306.08H298.285ZM303.053 310V301.273H308.32V302.21H304.11V305.159H308.047V306.097H304.11V309.062H308.388V310H303.053ZM314.118 310H311.425V301.273H314.237C315.084 301.273 315.808 301.447 316.411 301.797C317.013 302.143 317.475 302.642 317.796 303.293C318.117 303.94 318.277 304.716 318.277 305.619C318.277 306.528 318.115 307.311 317.791 307.967C317.467 308.621 316.996 309.124 316.376 309.476C315.757 309.825 315.004 310 314.118 310ZM312.482 309.062H314.05C314.771 309.062 315.369 308.923 315.844 308.645C316.318 308.366 316.672 307.97 316.905 307.456C317.138 306.942 317.254 306.33 317.254 305.619C317.254 304.915 317.139 304.308 316.909 303.8C316.679 303.288 316.335 302.896 315.878 302.624C315.421 302.348 314.851 302.21 314.169 302.21H312.482V309.062ZM325.825 310V301.273H328.876C329.484 301.273 329.985 301.378 330.38 301.588C330.775 301.795 331.069 302.075 331.262 302.428C331.455 302.777 331.552 303.165 331.552 303.591C331.552 303.966 331.485 304.276 331.352 304.52C331.221 304.764 331.048 304.957 330.832 305.099C330.619 305.241 330.387 305.347 330.137 305.415V305.5C330.404 305.517 330.673 305.611 330.943 305.781C331.213 305.952 331.438 306.196 331.62 306.514C331.802 306.832 331.893 307.222 331.893 307.682C331.893 308.119 331.794 308.513 331.595 308.862C331.396 309.212 331.082 309.489 330.653 309.693C330.224 309.898 329.666 310 328.978 310H325.825ZM326.882 309.062H328.978C329.669 309.062 330.159 308.929 330.448 308.662C330.741 308.392 330.887 308.065 330.887 307.682C330.887 307.386 330.812 307.114 330.661 306.864C330.511 306.611 330.296 306.409 330.018 306.259C329.74 306.105 329.41 306.028 329.029 306.028H326.882V309.062ZM326.882 305.108H328.842C329.16 305.108 329.447 305.045 329.703 304.92C329.961 304.795 330.166 304.619 330.316 304.392C330.47 304.165 330.546 303.898 330.546 303.591C330.546 303.207 330.413 302.882 330.146 302.615C329.879 302.345 329.455 302.21 328.876 302.21H326.882V305.108ZM334.079 301.273H335.29L337.71 305.347H337.812L340.233 301.273H341.443L338.29 306.403V310H337.233V306.403L334.079 301.273ZM348.585 310V301.273H351.636C352.244 301.273 352.745 301.378 353.14 301.588C353.535 301.795 353.829 302.075 354.022 302.428C354.216 302.777 354.312 303.165 354.312 303.591C354.312 303.966 354.245 304.276 354.112 304.52C353.981 304.764 353.808 304.957 353.592 305.099C353.379 305.241 353.147 305.347 352.897 305.415V305.5C353.164 305.517 353.433 305.611 353.703 305.781C353.973 305.952 354.199 306.196 354.38 306.514C354.562 306.832 354.653 307.222 354.653 307.682C354.653 308.119 354.554 308.513 354.355 308.862C354.156 309.212 353.842 309.489 353.413 309.693C352.984 309.898 352.426 310 351.738 310H348.585ZM349.642 309.062H351.738C352.429 309.062 352.919 308.929 353.209 308.662C353.501 308.392 353.647 308.065 353.647 307.682C353.647 307.386 353.572 307.114 353.422 306.864C353.271 306.611 353.057 306.409 352.778 306.259C352.5 306.105 352.17 306.028 351.789 306.028H349.642V309.062ZM349.642 305.108H351.602C351.92 305.108 352.207 305.045 352.463 304.92C352.721 304.795 352.926 304.619 353.076 304.392C353.23 304.165 353.307 303.898 353.307 303.591C353.307 303.207 353.173 302.882 352.906 302.615C352.639 302.345 352.216 302.21 351.636 302.21H349.642V305.108ZM358.646 301.273V310H357.59V301.273H358.646ZM361.488 302.21V301.273H368.034V302.21H365.289V310H364.232V302.21H361.488ZM377.524 304H376.467C376.405 303.696 376.295 303.429 376.139 303.199C375.986 302.969 375.798 302.776 375.577 302.619C375.358 302.46 375.115 302.341 374.848 302.261C374.581 302.182 374.302 302.142 374.013 302.142C373.484 302.142 373.006 302.276 372.577 302.543C372.151 302.81 371.811 303.203 371.558 303.723C371.308 304.243 371.183 304.881 371.183 305.636C371.183 306.392 371.308 307.03 371.558 307.55C371.811 308.07 372.151 308.463 372.577 308.73C373.006 308.997 373.484 309.131 374.013 309.131C374.302 309.131 374.581 309.091 374.848 309.011C375.115 308.932 375.358 308.814 375.577 308.658C375.798 308.499 375.986 308.304 376.139 308.074C376.295 307.841 376.405 307.574 376.467 307.273H377.524C377.445 307.719 377.3 308.118 377.089 308.47C376.879 308.822 376.618 309.122 376.305 309.369C375.993 309.614 375.642 309.8 375.253 309.928C374.866 310.055 374.453 310.119 374.013 310.119C373.268 310.119 372.606 309.938 372.027 309.574C371.447 309.21 370.991 308.693 370.659 308.023C370.327 307.352 370.16 306.557 370.16 305.636C370.16 304.716 370.327 303.92 370.659 303.25C370.991 302.58 371.447 302.062 372.027 301.699C372.606 301.335 373.268 301.153 374.013 301.153C374.453 301.153 374.866 301.217 375.253 301.345C375.642 301.473 375.993 301.661 376.305 301.908C376.618 302.152 376.879 302.45 377.089 302.803C377.3 303.152 377.445 303.551 377.524 304ZM387.795 305.636C387.795 306.557 387.629 307.352 387.297 308.023C386.964 308.693 386.509 309.21 385.929 309.574C385.349 309.938 384.688 310.119 383.943 310.119C383.199 310.119 382.537 309.938 381.957 309.574C381.378 309.21 380.922 308.693 380.589 308.023C380.257 307.352 380.091 306.557 380.091 305.636C380.091 304.716 380.257 303.92 380.589 303.25C380.922 302.58 381.378 302.062 381.957 301.699C382.537 301.335 383.199 301.153 383.943 301.153C384.688 301.153 385.349 301.335 385.929 301.699C386.509 302.062 386.964 302.58 387.297 303.25C387.629 303.92 387.795 304.716 387.795 305.636ZM386.773 305.636C386.773 304.881 386.646 304.243 386.393 303.723C386.143 303.203 385.804 302.81 385.375 302.543C384.949 302.276 384.472 302.142 383.943 302.142C383.415 302.142 382.936 302.276 382.507 302.543C382.081 302.81 381.741 303.203 381.489 303.723C381.239 304.243 381.114 304.881 381.114 305.636C381.114 306.392 381.239 307.03 381.489 307.55C381.741 308.07 382.081 308.463 382.507 308.73C382.936 308.997 383.415 309.131 383.943 309.131C384.472 309.131 384.949 308.997 385.375 308.73C385.804 308.463 386.143 308.07 386.393 307.55C386.646 307.03 386.773 306.392 386.773 305.636ZM391.829 301.273V310H390.772V301.273H391.829ZM402.069 301.273V310H401.046L396.29 303.148H396.205V310H395.148V301.273H396.171L400.944 308.142H401.029V301.273H402.069ZM415.686 301.273H416.742V307.051C416.742 307.648 416.602 308.18 416.321 308.649C416.042 309.115 415.649 309.483 415.14 309.753C414.632 310.02 414.035 310.153 413.35 310.153C412.666 310.153 412.069 310.02 411.561 309.753C411.052 309.483 410.657 309.115 410.376 308.649C410.098 308.18 409.958 307.648 409.958 307.051V301.273H411.015V306.966C411.015 307.392 411.109 307.771 411.296 308.104C411.484 308.433 411.751 308.693 412.098 308.884C412.447 309.071 412.865 309.165 413.35 309.165C413.836 309.165 414.254 309.071 414.603 308.884C414.953 308.693 415.22 308.433 415.404 308.104C415.592 307.771 415.686 307.392 415.686 306.966V301.273ZM426.973 301.273V310H425.951L421.195 303.148H421.11V310H420.053V301.273H421.076L425.848 308.142H425.934V301.273H426.973ZM430.288 310V301.273H431.345V309.062H435.402V310H430.288ZM439.295 301.273V310H438.238V301.273H439.295ZM442.614 301.273H443.875L446.841 308.517H446.943L449.909 301.273H451.171V310H450.182V303.369H450.097L447.37 310H446.415L443.688 303.369H443.602V310H442.614V301.273ZM455.546 301.273V310H454.49V301.273H455.546ZM458.388 302.21V301.273H464.934V302.21H462.189V310H461.132V302.21H458.388ZM467.765 310V301.273H473.032V302.21H468.821V305.159H472.759V306.097H468.821V309.062H473.1V310H467.765ZM478.83 310H476.136V301.273H478.949C479.796 301.273 480.52 301.447 481.122 301.797C481.725 302.143 482.186 302.642 482.507 303.293C482.828 303.94 482.989 304.716 482.989 305.619C482.989 306.528 482.827 307.311 482.503 307.967C482.179 308.621 481.708 309.124 481.088 309.476C480.469 309.825 479.716 310 478.83 310ZM477.193 309.062H478.761C479.483 309.062 480.081 308.923 480.556 308.645C481.03 308.366 481.384 307.97 481.617 307.456C481.85 306.942 481.966 306.33 481.966 305.619C481.966 304.915 481.851 304.308 481.621 303.8C481.391 303.288 481.047 302.896 480.59 302.624C480.132 302.348 479.563 302.21 478.881 302.21H477.193V309.062Z" fill="white"/>
</g>
<defs>
<linearGradient id="paint0_linear_1_3" x1="440" y1="336" x2="273" y2="-19" gradientUnits="userSpaceOnUse">
<stop stop-color="#3C2F48"/>
<stop offset="1" stop-color="#2E2634"/>
</linearGradient>
<linearGradient id="paint1_linear_1_3" x1="533.968" y1="234.871" x2="567.045" y2="267.242" gradientUnits="userSpaceOnUse">
<stop stop-color="#FFE144"/>
<stop offset="1" stop-color="#FFFD9D"/>
</linearGradient>
<linearGradient id="paint2_linear_1_3" x1="325.593" y1="124.203" x2="351.466" y2="214.137" gradientUnits="userSpaceOnUse">
<stop stop-color="#FFE144"/>
<stop offset="1" stop-color="#FFFD9D"/>
</linearGradient>
<linearGradient id="paint3_linear_1_3" x1="263.951" y1="242.531" x2="269.459" y2="282.23" gradientUnits="userSpaceOnUse">
<stop stop-color="#FFE144"/>
<stop offset="1" stop-color="#B6761C"/>
</linearGradient>
<linearGradient id="paint4_linear_1_3" x1="82.2868" y1="221.28" x2="117.928" y2="290.592" gradientUnits="userSpaceOnUse">
<stop stop-color="#FFE144"/>
<stop offset="1" stop-color="#FFFD9D"/>
</linearGradient>
<linearGradient id="paint5_linear_1_3" x1="64.2225" y1="288.557" x2="75.8401" y2="335.112" gradientUnits="userSpaceOnUse">
<stop stop-color="#FFE144"/>
<stop offset="1" stop-color="#B6761C"/>
</linearGradient>
<linearGradient id="paint6_linear_1_3" x1="496.867" y1="-26.3173" x2="574.09" y2="64.6317" gradientUnits="userSpaceOnUse">
<stop stop-color="#FFE144"/>
<stop offset="1" stop-color="#FFFD9D"/>
</linearGradient>
<linearGradient id="paint7_linear_1_3" x1="34.2837" y1="177.555" x2="88.4116" y2="253.746" gradientUnits="userSpaceOnUse">
<stop stop-color="#FFE144"/>
<stop offset="1" stop-color="#B6761C"/>
</linearGradient>
<linearGradient id="paint8_linear_1_3" x1="404.541" y1="179.755" x2="410.306" y2="237.453" gradientUnits="userSpaceOnUse">
<stop stop-color="#FFE144"/>
<stop offset="1" stop-color="#B6761C"/>
</linearGradient>
<linearGradient id="paint9_linear_1_3" x1="541.268" y1="163.649" x2="547.684" y2="217.177" gradientUnits="userSpaceOnUse">
<stop stop-color="#FFE144"/>
<stop offset="1" stop-color="#B6761C"/>
</linearGradient>
<linearGradient id="paint10_linear_1_3" x1="553.005" y1="66.8065" x2="617.069" y2="114.177" gradientUnits="userSpaceOnUse">
<stop stop-color="#FFE144"/>
<stop offset="1" stop-color="#B6761C"/>
</linearGradient>
<linearGradient id="paint11_linear_1_3" x1="507.214" y1="299.893" x2="507.214" y2="303.377" gradientUnits="userSpaceOnUse">
<stop stop-color="white"/>
<stop offset="1" stop-color="white" stop-opacity="0"/>
</linearGradient>
<linearGradient id="paint12_linear_1_3" x1="508.092" y1="300.772" x2="508.092" y2="304.256" gradientUnits="userSpaceOnUse">
<stop stop-color="white"/>
<stop offset="1" stop-color="white" stop-opacity="0"/>
</linearGradient>
<linearGradient id="paint13_linear_1_3" x1="508.971" y1="301.651" x2="508.971" y2="305.135" gradientUnits="userSpaceOnUse">
<stop stop-color="white"/>
<stop offset="1" stop-color="white" stop-opacity="0"/>
</linearGradient>
<linearGradient id="paint14_linear_1_3" x1="0.249593" y1="0" x2="0.249593" y2="3.48451" gradientUnits="userSpaceOnUse">
<stop stop-color="white"/>
<stop offset="1" stop-color="white" stop-opacity="0"/>
</linearGradient>
<linearGradient id="paint15_linear_1_3" x1="0.249593" y1="0" x2="0.249593" y2="3.48451" gradientUnits="userSpaceOnUse">
<stop stop-color="white"/>
<stop offset="1" stop-color="white" stop-opacity="0"/>
</linearGradient>
<linearGradient id="paint16_linear_1_3" x1="0.249593" y1="0" x2="0.249593" y2="3.48451" gradientUnits="userSpaceOnUse">
<stop stop-color="white"/>
<stop offset="1" stop-color="white" stop-opacity="0"/>
</linearGradient>
<clipPath id="clip0_1_3">
<rect width="545" height="336" fill="white"/>
</clipPath>
</defs>
</svg>
